<?xml version="1.0" encoding="utf-8"?>
<!-- Generator: Adobe Illustrator 22.1.0, SVG Export Plug-In . SVG Version: 6.00 Build 0)  -->
<svg version="1.1" id="Layer_1" xmlns="http://www.w3.org/2000/svg" xmlns:xlink="http://www.w3.org/1999/xlink" x="0px" y="0px"
	 viewBox="0 0 66.7 65.4" style="enable-background:new 0 0 66.7 65.4;" xml:space="preserve">
<style type="text/css">
	.st0{font-family:'MiriamLibre-Bold';}
	.st1{font-size:7px;}
	.st2{fill:none;stroke:#000000;stroke-miterlimit:10;}
	.st3{fill:none;stroke:#000000;stroke-linecap:round;stroke-miterlimit:10;}
	.st4{fill:none;stroke:#000000;stroke-linecap:round;stroke-linejoin:round;stroke-miterlimit:10;}
</style>
<text transform="matrix(1 0 0 1 2.7932 52.1619)"><tspan x="0" y="0" class="st0 st1">Kevin Davenport</tspan><tspan x="0" y="8.4" class="st0 st1">Engineering &amp; ML</tspan></text>
<g>
	<path class="st2" d="M33.3,3.1c-12.2,0-24,6.8-24,18c0,11.2,11.8,18,24,18s24-6.7,24-18C57.3,9.8,45.5,3.1,33.3,3.1z"/>
	<ellipse class="st2" cx="33.3" cy="16.1" rx="8" ry="5"/>
	<path class="st3" d="M10.7,14.9c-1.3,4.6-1.3,7.7,0.3,8.3c1.7,0.7,1.6,2.2,3.9,3.8c2,1.4,3.5-0.1,5.1,0.5c1.2,0.5,4.3,3.2,7.2,3.4
		c2.3,0.2,4.7-1.5,6.1-1.5c1.7,0,3.2,1.7,5.5,1.2c1.6-0.3,2.7-1.5,4.3-1.9c1.4-0.4,3.4,0.2,5.8-0.3c2-0.4,1.4-1.9,3.4-3.2
		c1.5-1,2.8-0.6,3.8-1.4c1-0.8,1.3-1.2,1.3-2.4"/>
	<line class="st4" x1="47.5" y1="12.1" x2="48.7" y2="15.5"/>
	<line class="st4" x1="44" y1="19.9" x2="47.4" y2="21"/>
	<line class="st4" x1="39.1" y1="24.9" x2="36.2" y2="26.9"/>
	<line class="st4" x1="24.6" y1="23.6" x2="27.8" y2="25.5"/>
	<line class="st4" x1="16.4" y1="19.4" x2="19.7" y2="20.5"/>
	<line class="st4" x1="15.5" y1="13.7" x2="18.2" y2="11.8"/>
	<line class="st4" x1="22.9" y1="7.8" x2="24.5" y2="10.1"/>
	<line class="st4" x1="29.1" y1="6" x2="32.6" y2="6.7"/>
	<line class="st4" x1="38.9" y1="8.2" x2="42.1" y2="7.3"/>
</g>
</svg>
