<?xml version="1.0" standalone="no"?>
<!DOCTYPE svg PUBLIC "-//W3C//DTD SVG 20010904//EN"
 "http://www.w3.org/TR/2001/REC-SVG-20010904/DTD/svg10.dtd">
<svg version="1.0" xmlns="http://www.w3.org/2000/svg"
 width="536.000000pt" height="536.000000pt" viewBox="0 0 536.000000 536.000000"
 preserveAspectRatio="xMidYMid meet">
<metadata>
Created by potrace 1.11, written by Peter Selinger 2001-2013
</metadata>
<g transform="translate(0.000000,536.000000) scale(0.100000,-0.100000)"
fill="#000000" stroke="none">
<path d="M2668 5105 c-1 -1 -61 -6 -133 -9 -71 -3 -141 -8 -155 -11 -14 -2
-45 -6 -70 -9 -53 -7 -87 -13 -155 -27 -27 -6 -63 -13 -80 -16 -55 -9 -253
-72 -357 -114 -106 -42 -260 -118 -266 -131 -2 -5 -8 -8 -13 -8 -8 0 -130 -79
-174 -111 -41 -31 -178 -154 -210 -190 -156 -168 -265 -371 -315 -582 -40
-169 -42 -386 -6 -547 63 -276 208 -513 441 -720 135 -120 380 -264 561 -331
33 -12 65 -26 71 -32 7 -5 13 -7 13 -4 0 3 26 -3 58 -14 103 -36 299 -81 407
-95 22 -3 50 -7 62 -10 108 -22 488 -22 653 1 19 2 55 7 80 10 25 3 88 14 140
25 668 139 1181 522 1353 1011 14 41 28 86 31 101 2 15 7 31 10 36 3 5 8 31
11 58 6 47 9 68 20 124 12 57 -1 229 -26 357 -6 29 -11 56 -11 60 0 5 -14 46
-30 93 -165 472 -613 834 -1231 995 -73 18 -148 36 -167 39 -19 3 -44 7 -55
10 -11 2 -45 7 -75 11 -30 4 -63 9 -73 11 -10 2 -78 6 -150 9 -73 4 -137 8
-144 10 -6 2 -13 2 -15 0z m287 -98 c11 -3 43 -8 70 -11 387 -50 788 -210
1055 -421 74 -59 234 -233 285 -310 73 -111 141 -261 159 -351 3 -10 9 -41 16
-69 18 -78 24 -176 21 -306 -2 -65 -95 -138 -195 -153 -141 -22 -239 -89 -323
-218 -24 -37 -56 -74 -71 -82 -48 -25 -133 -34 -302 -34 -91 0 -181 -3 -200
-6 -19 -3 -98 -37 -175 -75 -158 -79 -172 -84 -235 -86 -54 -2 -110 12 -210
53 -90 36 -108 42 -155 46 -35 4 -131 -16 -170 -34 -11 -6 -50 -21 -87 -35
-145 -53 -237 -61 -346 -30 -64 19 -205 84 -210 96 -2 5 -8 9 -13 9 -5 0 -41
21 -81 47 -170 108 -166 107 -248 107 -41 0 -111 -3 -156 -7 -74 -6 -85 -4
-133 19 -57 29 -148 114 -187 175 -35 56 -103 120 -151 144 -49 24 -63 43 -78
110 -21 95 -1 277 53 472 71 256 357 544 712 719 141 69 355 148 459 169 9 2
46 10 82 19 36 8 88 18 115 22 27 3 58 8 69 10 11 2 56 7 100 10 44 4 82 8 84
10 5 5 421 -4 446 -9z m-1987 -1688 c92 -116 135 -160 197 -204 35 -25 74 -49
87 -52 31 -9 167 -9 250 -1 77 9 71 11 271 -111 203 -124 309 -164 442 -165
90 0 128 9 299 71 65 24 133 45 150 46 36 3 84 -10 182 -51 93 -39 157 -52
230 -48 62 4 171 42 234 81 19 12 62 35 95 51 57 28 67 29 205 31 369 5 415
19 502 157 67 105 137 153 270 182 40 9 91 25 112 35 22 11 41 19 42 19 1 0
-2 -17 -8 -37 -69 -265 -224 -492 -458 -675 -41 -32 -79 -62 -85 -66 -23 -19
-165 -102 -222 -130 -154 -78 -394 -161 -543 -189 -14 -2 -43 -8 -65 -13 -22
-5 -67 -12 -100 -15 -33 -3 -67 -8 -75 -10 -55 -15 -372 -22 -500 -11 -71 6
-170 17 -195 22 -11 3 -38 7 -60 10 -22 3 -58 10 -80 16 -22 6 -51 12 -65 15
-248 48 -609 218 -809 380 -97 78 -219 211 -289 314 -87 129 -159 312 -177
451 l-4 26 62 -37 c36 -22 80 -61 105 -92z"/>
<path d="M2318 4859 c-35 -20 -13 -69 33 -76 11 -2 73 -14 139 -27 65 -13 125
-23 132 -22 37 5 51 43 25 65 -8 6 -72 22 -143 37 -175 35 -167 34 -186 23z"/>
<path d="M3240 4726 c-58 -17 -115 -35 -126 -39 -30 -11 -36 -42 -13 -63 19
-17 26 -16 157 21 75 21 143 43 150 48 7 6 12 22 10 36 -3 22 -8 26 -38 27
-19 1 -82 -12 -140 -30z"/>
<path d="M1812 4708 c-20 -20 -14 -35 56 -138 70 -104 100 -126 129 -97 9 9
13 23 9 35 -6 19 -75 120 -126 185 -23 29 -48 35 -68 15z"/>
<path d="M2490 4440 c-297 -54 -493 -222 -494 -425 -1 -169 137 -315 372 -394
101 -34 178 -45 312 -45 110 1 184 8 223 23 15 6 27 9 27 6 0 -8 116 36 179
68 101 51 224 183 235 251 1 6 5 16 8 22 4 6 6 42 4 80 -4 91 -34 152 -111
230 -98 99 -213 153 -405 190 -75 14 -256 11 -350 -6z m327 -74 c199 -31 374
-131 434 -248 30 -58 30 -148 1 -203 -156 -300 -820 -353 -1086 -87 -211 211
-28 476 369 536 82 13 208 13 282 2z"/>
<path d="M1345 4329 c-123 -85 -149 -113 -135 -140 14 -26 47 -24 86 6 18 14
37 25 42 25 6 0 12 3 14 8 2 4 33 29 70 55 81 57 95 78 69 101 -9 9 -24 16
-32 15 -8 0 -59 -31 -114 -70z"/>
<path d="M3791 4361 c-19 -19 -19 -20 5 -88 14 -37 27 -75 29 -83 14 -54 55
-145 70 -156 23 -17 55 -1 55 27 0 32 -88 281 -107 301 -20 23 -28 23 -52 -1z"/>
<path d="M1292 3778 c-16 -16 -15 -43 1 -56 14 -12 236 -90 276 -97 57 -10 72
54 19 76 -18 8 -35 14 -38 15 -3 0 -12 3 -20 7 -38 14 -206 67 -216 67 -5 0
-15 -5 -22 -12z"/>
<path d="M3506 3735 c-12 -12 -13 -21 -5 -38 8 -18 34 -31 109 -56 54 -17 107
-34 117 -36 10 -2 31 -8 47 -14 16 -6 37 -9 47 -6 23 8 34 42 20 59 -6 7 -64
30 -129 51 -64 20 -124 39 -132 42 -35 13 -59 13 -74 -2z"/>
<path d="M1952 3438 c-23 -23 -12 -47 31 -75 23 -15 65 -42 94 -60 28 -18 54
-33 57 -33 4 0 25 -12 47 -26 50 -31 89 -27 89 10 0 30 -13 40 -156 125 -126
73 -142 79 -162 59z"/>
<path d="M3083 3316 c-85 -57 -188 -128 -202 -142 -9 -8 -11 -22 -7 -38 11
-44 45 -32 180 61 98 68 126 92 126 109 0 22 -13 37 -37 40 -6 1 -33 -12 -60
-30z"/>
<path d="M1324 1543 c-27 -5 -37 -38 -18 -58 23 -22 44 -7 44 31 0 19 -1 33
-2 33 -2 -1 -13 -4 -24 -6z"/>
<path d="M280 1476 c-2 -245 -1 -346 4 -354 3 -5 16 -9 28 -8 22 1 23 5 24 91
1 50 2 93 3 96 0 3 44 -37 96 -91 86 -87 99 -97 130 -96 19 1 35 2 35 3 0 1
-48 51 -106 110 l-106 107 96 91 c53 49 96 93 96 96 0 3 -14 5 -30 5 -25 0
-48 -16 -118 -82 -48 -45 -89 -80 -91 -78 -3 3 -6 37 -7 77 -2 90 1 83 -29 83
-23 0 -25 -3 -25 -50z"/>
<path d="M1993 1321 l2 -206 100 1 c111 2 155 15 196 61 33 36 47 86 44 160
-5 133 -73 184 -247 188 l-97 2 2 -206z m208 141 c48 -20 68 -56 74 -129 9
-116 -42 -168 -167 -172 l-58 -2 0 160 0 161 58 -1 c31 -1 73 -9 93 -17z"/>
<path d="M4739 1498 c-1 -7 -2 -26 -3 -43 -1 -22 -6 -30 -18 -29 -11 1 -18 -5
-18 -17 0 -10 8 -22 18 -28 14 -8 17 -24 18 -88 2 -140 2 -141 29 -159 14 -9
47 -17 73 -18 40 -1 47 2 50 20 2 17 -3 20 -40 23 -24 1 -47 6 -51 10 -9 9
-13 198 -5 206 3 3 26 6 51 7 35 0 46 5 50 19 6 20 -1 23 -65 20 -35 -1 -38 1
-39 26 -1 16 -1 36 0 46 2 12 -5 17 -23 17 -14 0 -27 -6 -27 -12z"/>
<path d="M679 1414 c-101 -42 -110 -233 -13 -284 39 -20 50 -22 104 -22 65 0
100 16 100 46 0 23 -1 23 -37 10 -78 -27 -143 -11 -168 42 -9 19 -14 38 -11
42 2 4 53 7 111 7 99 -1 108 0 115 19 15 42 -21 118 -66 140 -42 20 -87 20
-135 0z m99 -35 c30 -10 62 -62 48 -76 -10 -11 -149 -11 -163 0 -24 17 12 62
62 79 11 3 20 6 21 7 1 1 15 -4 32 -10z"/>
<path d="M936 1421 c-5 -7 64 -201 94 -268 17 -37 23 -41 51 -39 30 2 43 17
55 61 1 6 22 63 47 128 l45 117 -28 0 c-29 0 -29 0 -66 -105 -10 -27 -21 -54
-25 -60 -3 -5 -10 -25 -14 -42 -12 -61 -16 -54 -95 169 -9 25 -21 38 -37 41
-13 2 -25 2 -27 -2z"/>
<path d="M1299 1409 c0 -10 -1 -75 -1 -144 0 -166 -2 -155 25 -151 22 3 22 6
25 154 1 84 -1 152 -5 153 -5 0 -16 2 -25 4 -12 2 -18 -3 -19 -16z"/>
<path d="M1456 1423 c-3 -4 -6 -73 -6 -155 0 -126 2 -150 16 -155 28 -10 36
14 38 114 2 112 13 139 59 151 66 18 98 -18 96 -108 -2 -152 -1 -160 26 -158
l25 2 0 114 c0 132 -12 172 -59 192 -40 16 -97 7 -126 -20 -20 -18 -23 -19
-22 -5 2 17 -36 39 -47 28z"/>
<path d="M2461 1422 c-23 -7 -43 -39 -34 -55 2 -4 13 -2 24 4 12 6 42 11 69
12 52 2 90 -21 90 -55 0 -15 -8 -18 -56 -18 -56 0 -113 -19 -134 -45 -15 -18
-19 -74 -9 -102 20 -54 117 -73 170 -33 27 19 27 19 32 -1 4 -13 12 -18 28
-16 23 4 24 7 24 98 2 170 -21 209 -121 215 -33 1 -70 0 -83 -4z m149 -183 c0
-86 -134 -123 -152 -43 -11 47 25 71 105 72 46 1 47 0 47 -29z"/>
<path d="M2736 1423 c-3 -3 -1 -15 4 -26 13 -32 20 -52 64 -172 41 -108 41
-110 74 -111 23 -1 36 5 43 18 19 35 111 290 106 294 -1 1 -13 0 -27 -3 -21
-4 -30 -18 -53 -81 -16 -42 -32 -86 -37 -97 -5 -11 -12 -31 -15 -44 -4 -12
-11 -19 -15 -15 -7 7 -70 170 -85 220 -3 12 -51 25 -59 17z"/>
<path d="M3165 1416 c-80 -36 -110 -138 -66 -229 32 -67 104 -93 204 -73 39 7
56 23 50 46 -5 17 -8 18 -32 7 -34 -17 -90 -21 -124 -8 -27 11 -70 68 -64 86
2 6 52 10 118 10 l114 1 -3 43 c-1 24 -10 56 -19 72 -32 53 -113 74 -178 45z
m107 -40 c10 -5 24 -21 32 -37 19 -37 13 -40 -81 -43 -83 -2 -92 0 -86 24 14
51 81 79 135 56z"/>
<path d="M3452 1416 c-7 -8 -9 -260 -3 -298 0 -5 11 -6 24 -4 21 3 22 7 23
104 1 110 14 145 59 162 27 10 51 5 78 -18 14 -13 17 -33 17 -128 0 -104 2
-113 20 -119 11 -3 23 -4 28 -1 4 2 7 58 6 124 -1 96 -5 124 -20 146 -33 51
-100 60 -156 22 -30 -20 -35 -21 -31 -6 5 21 -31 34 -45 16z"/>
<path d="M3806 1422 c-2 -4 -4 -97 -4 -207 -1 -205 4 -233 37 -216 13 7 16 24
16 80 -1 67 6 89 18 57 6 -15 72 -33 104 -28 34 5 80 54 92 99 13 48 5 128
-16 164 -31 52 -100 73 -158 47 -14 -6 -25 -15 -25 -20 0 -4 -4 -8 -10 -8 -5
0 -10 6 -10 14 0 14 -37 29 -44 18z m187 -61 c24 -24 37 -93 26 -135 -20 -74
-87 -99 -134 -51 -25 24 -28 37 -27 108 2 87 80 133 135 78z"/>
<path d="M4212 1413 c-51 -25 -76 -82 -69 -161 7 -96 48 -140 134 -144 48 -1
90 18 117 55 29 39 32 150 7 198 -33 63 -120 86 -189 52z m102 -37 c26 -11 35
-22 43 -55 29 -112 -27 -193 -111 -161 -36 13 -55 61 -50 124 5 59 33 94 82
105 1 1 18 -5 36 -13z"/>
<path d="M4512 1421 c-5 -3 -9 -67 -9 -154 0 -118 3 -150 14 -154 28 -11 37
17 38 109 2 124 25 164 90 160 36 -3 48 7 39 32 -9 23 -66 20 -97 -4 -30 -23
-41 -26 -34 -6 6 15 -24 28 -41 17z"/>
<path d="M1348 846 c-6 -32 5 -49 28 -44 29 5 26 62 -2 66 -16 2 -23 -3 -26
-22z"/>
<path d="M2788 863 c-2 -4 -4 -19 -4 -33 1 -18 7 -26 24 -28 12 -2 23 1 23 7
5 47 2 56 -18 59 -12 2 -23 0 -25 -5z"/>
<path d="M3934 853 c-38 -7 -68 -49 -67 -93 0 -22 6 -46 12 -54 8 -10 6 -18
-10 -32 -50 -45 -66 -129 -34 -178 42 -64 139 -84 218 -43 26 13 47 21 47 18
0 -15 56 -38 80 -32 24 7 24 7 5 21 -11 9 -28 25 -38 36 -17 21 -17 23 2 55
11 19 23 51 26 72 7 34 6 37 -17 37 -21 0 -26 -7 -37 -50 -7 -27 -16 -52 -21
-55 -4 -3 -47 36 -94 86 -68 71 -86 96 -86 119 0 20 7 33 21 41 21 11 76 8
110 -6 13 -5 16 -1 15 17 0 13 -6 26 -13 31 -15 9 -91 16 -119 10z m59 -271
c73 -73 73 -79 12 -99 -61 -20 -135 26 -135 84 0 31 27 83 43 83 7 0 43 -31
80 -68z"/>
<path d="M280 813 c-3 -175 -1 -365 3 -369 4 -4 200 -8 254 -5 6 1 10 9 8 19
-2 9 -4 20 -4 23 -1 3 -43 5 -93 5 -51 -1 -98 0 -103 1 -8 3 -13 113 -6 143 0
3 43 5 94 5 88 0 92 1 95 23 4 25 5 24 -115 24 -48 0 -73 4 -74 11 -1 7 -2 33
-3 60 -2 54 -12 49 122 49 80 -1 82 0 82 24 l0 24 -130 0 -130 0 0 -37z"/>
<path d="M4453 645 l0 -205 29 0 28 0 0 173 1 172 49 -128 c26 -71 51 -131 53
-134 3 -2 16 -6 30 -7 24 -3 28 5 71 120 25 68 46 129 46 134 0 6 3 9 8 7 4
-3 7 -80 6 -171 l0 -166 28 0 28 0 0 205 0 205 -43 0 -42 0 -50 -134 c-27 -74
-52 -133 -56 -131 -3 3 -27 63 -54 135 l-47 130 -43 0 -42 0 0 -205z"/>
<path d="M4939 738 c-1 -175 1 -291 6 -296 6 -7 232 -5 243 2 6 3 9 14 8 24
-3 15 -16 17 -92 18 -49 1 -94 2 -99 3 -6 1 -10 68 -10 181 l0 180 -27 0 -28
0 -1 -112z"/>
<path d="M743 748 c-18 -5 -33 -12 -33 -17 0 -5 -7 -11 -15 -15 -8 -3 -14 -2
-14 2 4 24 -3 33 -23 30 -22 -3 -23 -6 -26 -148 -1 -79 0 -150 2 -157 4 -8 12
-10 27 -5 20 8 22 16 23 117 2 104 3 109 30 131 30 27 53 30 91 12 27 -12 28
-13 31 -138 1 -47 2 -93 3 -102 1 -12 9 -18 26 -18 l25 0 0 110 c0 110 -13
168 -40 185 -25 15 -76 21 -107 13z"/>
<path d="M1055 747 c-89 -26 -114 -207 -39 -278 35 -32 107 -38 145 -10 l29
22 0 -26 c0 -39 -18 -65 -53 -80 -35 -14 -92 -11 -113 6 -8 6 -14 10 -15 8
-11 -54 -2 -61 76 -64 79 -2 104 8 135 52 21 30 23 45 24 190 1 87 0 164 -2
171 -7 19 -40 14 -47 -8 -6 -20 -6 -20 -28 0 -11 11 -26 20 -31 21 -6 0 -20 2
-31 3 -11 1 -34 -2 -50 -7z m105 -57 c26 -26 34 -60 27 -118 -9 -84 -86 -118
-141 -63 -16 16 -20 34 -20 85 -1 55 3 68 23 90 30 32 82 35 111 6z"/>
<path d="M1630 752 c-14 -2 -37 -13 -52 -24 l-28 -19 0 21 c0 16 -5 21 -22 18
-23 -3 -23 -6 -26 -155 l-3 -153 26 0 c14 0 25 3 26 8 0 4 2 54 3 111 1 99 2
104 29 127 28 24 71 31 94 16 18 -11 34 -62 33 -102 -1 -19 -2 -65 -1 -101 1
-65 1 -66 26 -61 28 5 27 2 26 121 -1 92 -13 152 -35 170 -20 16 -66 28 -96
23z"/>
<path d="M1955 750 c-71 -15 -118 -79 -117 -158 2 -97 57 -154 149 -157 84 -3
123 10 123 40 0 28 -3 29 -30 15 -30 -16 -95 -18 -128 -5 -32 14 -70 71 -55
86 4 4 58 10 118 11 121 3 118 1 102 75 -6 31 -59 92 -81 94 -6 0 -20 2 -31 3
-11 1 -33 -1 -50 -4z m90 -65 c14 -13 25 -33 25 -45 0 -19 -6 -20 -83 -20 -46
0 -86 3 -89 6 -9 8 16 53 38 69 30 23 82 18 109 -10z"/>
<path d="M2296 748 c-72 -15 -109 -70 -109 -160 1 -119 84 -176 217 -148 49
10 56 14 56 36 0 13 -1 24 -2 24 -2 0 -23 -6 -48 -13 -74 -22 -128 -10 -153
33 -34 57 -29 60 98 60 l115 0 0 30 c0 98 -77 159 -174 138z m92 -58 c12 -12
22 -24 23 -28 0 -4 2 -15 4 -24 3 -14 -7 -16 -83 -15 -98 2 -109 12 -64 57 37
36 87 41 120 10z"/>
<path d="M2666 749 c-15 -4 -37 -16 -47 -25 -18 -16 -19 -16 -19 4 0 17 -6 22
-25 22 l-25 0 0 -156 0 -155 27 3 26 3 1 100 c2 133 20 165 94 160 27 -1 32 2
32 21 0 25 -23 34 -64 23z"/>
<path d="M3050 749 c-13 -6 -33 -17 -42 -26 -17 -15 -18 -15 -18 5 0 17 -6 22
-25 22 -28 0 -27 10 -27 -170 0 -60 1 -117 1 -125 1 -9 11 -15 26 -15 25 0 25
0 25 100 0 109 10 142 47 159 34 16 57 14 84 -7 21 -18 22 -27 23 -135 l1
-117 26 0 27 0 -2 123 c-2 128 -11 156 -51 176 -34 16 -69 20 -95 10z"/>
<path d="M3380 753 c-34 -10 -61 -28 -76 -51 -48 -74 -29 -207 36 -245 39 -23
96 -21 131 4 29 20 29 20 29 0 0 -57 -53 -105 -105 -95 -87 17 -85 17 -85 -4
0 -28 10 -32 76 -37 70 -6 117 13 143 56 17 28 19 52 21 200 l1 169 -26 0
c-19 0 -25 -5 -25 -22 l0 -21 -22 20 c-23 21 -70 34 -98 26z m90 -65 c21 -23
22 -26 25 -90 4 -77 -41 -127 -101 -112 -73 18 -90 161 -25 211 26 20 78 16
101 -9z"/>
<path d="M1349 743 c0 -4 -2 -74 -2 -155 l-2 -148 28 0 28 0 -3 153 c-3 149
-3 152 -25 155 -13 2 -23 0 -24 -5z"/>
<path d="M2788 738 c-3 -7 -4 -76 -4 -153 l1 -140 26 -3 25 -3 -1 153 c-1 147
-1 153 -22 156 -11 2 -23 -3 -25 -10z"/>
</g>
</svg>
